<svg width="39" height="40" viewBox="0 0 39 40" fill="none" xmlns="http://www.w3.org/2000/svg">
<rect x="0.707107" y="20" width="26" height="26" rx="4.5" transform="rotate(-45 0.707107 20)" fill="#FABE2C" stroke="white" stroke-dasharray="1 1"/>
<path d="M19 32.1953C18.211 32.1953 17.5714 31.5557 17.5714 30.7668V25.8259C17.5714 23.6168 15.7806 21.8259 13.5714 21.8259H10.7282C9.77376 21.8259 9 21.0521 9 20.0977V20.0977C9 19.1432 9.77376 18.3694 10.7282 18.3694H13.5714C15.7806 18.3694 17.5714 16.5786 17.5714 14.3694V9.42857C17.5714 8.63959 18.211 8 19 8V8C19.789 8 20.4286 8.63959 20.4286 9.42857V14.3694C20.4286 16.5786 22.2194 18.3694 24.4286 18.3694H27.2718C28.2262 18.3694 29 19.1432 29 20.0977V20.0977C29 21.0521 28.2262 21.8259 27.2718 21.8259H24.4286C22.2194 21.8259 20.4286 23.6168 20.4286 25.8259V30.7668C20.4286 31.5557 19.789 32.1953 19 32.1953V32.1953Z" fill="white"/>
</svg>
